<?xml version="1.0" standalone="no"?>
<!DOCTYPE svg PUBLIC "-//W3C//DTD SVG 20010904//EN"
 "http://www.w3.org/TR/2001/REC-SVG-20010904/DTD/svg10.dtd">
<svg version="1.0" xmlns="http://www.w3.org/2000/svg"
 width="312.000000pt" height="312.000000pt" viewBox="0 0 312.000000 312.000000"
 preserveAspectRatio="xMidYMid meet">
<metadata>
Created by potrace 1.14, written by Peter Selinger 2001-2017
</metadata>
<g transform="translate(0.000000,312.000000) scale(0.100000,-0.100000)"
fill="#000000" stroke="none">
<path d="M2163 2531 c-98 -39 -162 -82 -224 -149 -59 -65 -85 -116 -103 -205
-18 -85 -8 -273 11 -220 12 32 148 225 198 278 l55 60 -34 -81 c-43 -102 -57
-130 -117 -226 -53 -87 -50 -92 35 -54 233 103 321 274 291 561 -9 77 -9 77
-112 36z"/>
<path d="M1608 2445 c-2 -2 -32 -6 -67 -9 -91 -10 -247 -65 -343 -122 -49 -30
-116 -83 -168 -134 -86 -84 -146 -157 -138 -166 3 -2 21 7 42 21 51 35 193
101 244 115 23 6 71 12 105 13 47 2 75 10 108 29 125 73 259 121 367 134 59 6
62 8 91 53 l31 46 -43 8 c-39 7 -224 17 -229 12z"/>
<path d="M1190 2085 c-73 -21 -250 -111 -250 -127 0 -16 124 -131 181 -168
146 -94 295 -99 467 -14 52 25 92 47 90 49 -4 5 -41 11 -118 20 -63 8 -243 49
-280 64 -23 9 -21 10 20 12 101 5 245 0 312 -11 39 -6 72 -9 74 -7 6 6 -68 77
-114 109 -84 58 -148 81 -241 84 -57 3 -105 -1 -141 -11z"/>
<path d="M831 1913 c-61 -120 -91 -273 -86 -433 5 -138 8 -160 45 -271 107
-323 400 -575 725 -625 22 -3 58 -9 80 -13 43 -8 158 -7 270 3 82 7 227 36
222 45 -32 58 -48 108 -43 133 4 21 -1 42 -19 72 -16 28 -25 58 -25 87 0 26
-9 61 -22 87 -28 52 -115 147 -120 131 -2 -7 3 -38 11 -69 12 -47 13 -67 3
-111 -12 -50 -68 -166 -77 -157 -3 2 4 28 15 56 27 69 26 165 -1 236 l-20 55
22 43 c12 24 22 44 23 45 0 1 13 4 28 8 24 6 29 2 52 -43 43 -85 104 -120 157
-92 26 15 25 55 -8 174 -22 78 -35 108 -62 135 -19 20 -40 58 -48 86 -8 28
-20 59 -26 70 -6 11 -23 56 -38 100 -34 102 -52 145 -59 145 -10 0 -11 -60 -1
-79 16 -29 50 -169 57 -231 l6 -57 -64 -17 c-110 -31 -129 -47 -295 -256 -99
-125 -160 -161 -273 -161 -70 -1 -83 10 -158 124 -47 72 -94 191 -107 272 -15
94 3 282 33 343 7 13 -12 38 -84 110 l-93 94 -20 -39z"/>
<path d="M2025 1766 l-50 -12 89 -42 c49 -23 87 -45 84 -48 -3 -3 -45 8 -92
23 -47 16 -86 28 -86 26 0 -14 33 -62 57 -84 44 -41 90 -60 147 -61 48 -1 146
18 146 29 0 14 -37 73 -64 101 -62 66 -138 89 -231 68z"/>
<path d="M2148 1367 c-21 -6 -38 -14 -38 -18 0 -4 11 -53 24 -108 15 -59 22
-110 18 -125 -10 -37 -49 -76 -83 -83 -38 -7 -30 -29 19 -49 1 -1 -5 -15 -15
-32 -25 -43 -9 -101 33 -122 l31 -16 -20 -37 c-16 -32 -17 -42 -7 -67 23 -56
55 -70 125 -56 106 21 156 95 118 175 -13 26 -13 32 1 53 20 29 21 97 1 126
-12 16 -13 27 -5 41 17 32 12 96 -9 122 -15 19 -18 34 -14 75 6 60 -6 87 -50
114 -35 22 -71 23 -129 7z"/>
</g>
</svg>
