<svg xmlns="http://www.w3.org/2000/svg" width="337.157" height="376.094">
    <defs>
        <style>
            .cls-12,.cls-3,.cls-5,.cls-8{stroke-width:2px}.cls-3{fill:#fff}.cls-12,.cls-3,.cls-5,.cls-8{stroke:#222}.cls-5{fill:#fbaa29}.cls-6{fill:#003656}.cls-8{fill:#1488e1}.cls-12{fill:#002639}
        </style>
    </defs>
    <g id="Group_19523" data-name="Group 19523" transform="translate(1.004 1)">
        <path id="Path_461" data-name="Path 461" d="M850.351 715.891A12.9 12.9 0 0 1 837.9 713.7c-4.361-3.661-5.73-9.691-6.841-15.276l-3.291-16.517 6.889 4.744c4.955 3.411 10.021 6.932 13.452 11.874s4.928 11.688 2.172 17.034" transform="translate(-530.965 -363.285)" style="fill:#ddd"/>
        <path id="Path_462" data-name="Path 462" d="M859.009 751.89c.7-5.08 1.414-10.224.925-15.358a24.154 24.154 0 0 0-4.657-12.664 21.067 21.067 0 0 0-5.405-4.9c-.541-.34-1.038.516-.5.855a20.028 20.028 0 0 1 7.922 9.558 32.065 32.065 0 0 1 1.7 13.829c-.18 2.818-.561 5.617-.945 8.414a.511.511 0 0 0 .346.609.5.5 0 0 0 .609-.346z" transform="translate(-540.212 -379.287)" style="stroke-width:2px;stroke:#dddddc;fill:#ddd"/>
        <path id="Path_17441" data-name="Path 17441" class="cls-3" d="M602.726 408.556H314.489V120.319h288.237z" transform="translate(-308.899 -120.319)"/>
        <path id="Path_17442" data-name="Path 17442" d="M602.726 408.556H314.489V120.319h288.237zM318.748 404.3h279.72V124.578h-279.72z" transform="translate(-308.899 -120.319)" style="fill:#eee;stroke:#222;stroke-width:2px"/>
        <path id="Rectangle_4153" data-name="Rectangle 4153" class="cls-3" transform="translate(117.946 45.095)" d="M0 0h124.819v3.888H0z"/>
        <path id="Rectangle_4154" data-name="Rectangle 4154" class="cls-3" transform="translate(117.946 55.204)" d="M0 0h124.819v3.888H0z"/>
        <path id="Rectangle_4155" data-name="Rectangle 4155" class="cls-3" transform="translate(117.946 65.313)" d="M0 0h124.819v3.888H0z"/>
        <path id="Rectangle_4156" data-name="Rectangle 4156" class="cls-3" transform="translate(117.946 131.901)" d="M0 0h124.819v3.888H0z"/>
        <path id="Rectangle_4157" data-name="Rectangle 4157" class="cls-3" transform="translate(117.946 142.01)" d="M0 0h124.819v3.888H0z"/>
        <path id="Rectangle_4158" data-name="Rectangle 4158" class="cls-3" transform="translate(117.946 152.119)" d="M0 0h124.819v3.888H0z"/>
        <path id="Rectangle_4159" data-name="Rectangle 4159" class="cls-3" transform="translate(117.946 218.707)" d="M0 0h124.819v3.888H0z"/>
        <path id="Rectangle_4160" data-name="Rectangle 4160" class="cls-3" transform="translate(117.946 228.816)" d="M0 0h124.819v3.888H0z"/>
        <path id="Rectangle_4161" data-name="Rectangle 4161" class="cls-3" transform="translate(117.946 238.925)" d="M0 0h124.819v3.888H0z"/>
        <path id="Path_17443" data-name="Path 17443" class="cls-5" d="M404.672 248.826a41.689 41.689 0 0 0-6.652-2.8l-.293-3.236-11.864-1.278-1.508 4.136-4.258 1.6a2.071 2.071 0 0 0-.432.225 2.109 2.109 0 0 0-.9 1.4 2.156 2.156 0 0 0 .032.846l.225.923c.324.194.657.378.99.554l.212.108c.486.252.981.491 1.49.711.1.045.216.09.32.135l.022.009c.239.1.477.194.72.284a23.648 23.648 0 0 0 2.439.783 25.084 25.084 0 0 0 6.468.846c.8 0 1.584-.036 2.363-.113a24.985 24.985 0 0 0 5.239-1.058h.013a24.592 24.592 0 0 0 3.146-1.247s.013 0 .018-.009c.229-.108.45-.225.675-.338l.108-.054a23.88 23.88 0 0 0 1.868-1.076 14.39 14.39 0 0 0 .869-.581c-.423-.27-.86-.527-1.31-.77z" transform="translate(-336.694 -172.752)"/>
        <path id="Path_17444" data-name="Path 17444" class="cls-3" d="m380.829 255.361-.743-3.353h-1.94a.462.462 0 0 0-.058 0 4.2 4.2 0 0 0-1.953.675 4.326 4.326 0 0 0-1.044.936 24.64 24.64 0 0 0 1.791 1.229l.027.013c.175.108.356.216.536.32.324.194.657.378.99.554l.212.108c.486.252.981.491 1.49.711.1.045.216.09.32.135l.022.009c.239.1.477.194.72.284z" transform="translate(-335.116 -177.293)"/>
        <circle id="Ellipse_787" data-name="Ellipse 787" class="cls-3" cx="8.544" cy="8.544" r="8.544" transform="translate(46.091 49.625)"/>
        <path id="Path_17445" data-name="Path 17445" class="cls-6" d="M387.937 209.4a5.4 5.4 0 0 0 3.762 1.463 35.434 35.434 0 0 0 9.623-.786c.2 1.9-.338 3.94.779 5.5a25.531 25.531 0 0 0 .907-5.788 5.54 5.54 0 0 0-.321-2.479 2.28 2.28 0 0 0-1.942-1.432 4.867 4.867 0 0 1 2.171-.928l-2.713-1.363.7-.715-4.912-.3 1.423-.9a30.848 30.848 0 0 0-6.463-.2 5.548 5.548 0 0 0-2.858.795 2.064 2.064 0 0 0-.776 2.584 3.752 3.752 0 0 0-2.859 2.269 6.057 6.057 0 0 0-.217 2.911 20.641 20.641 0 0 0 1.082 4.578z" transform="translate(-339.038 -155.387)"/>
        <path id="Path_17446" data-name="Path 17446" class="cls-3" d="M406.107 193.686a25.073 25.073 0 1 0-43.328 23.814c.225.284.459.567.7.842.018.018.031.036.049.054a24.309 24.309 0 0 0 1.868 1.926c.171.158.351.32.531.473.342.306.693.6 1.058.878.144.113.284.225.432.333a24.64 24.64 0 0 0 1.791 1.229l.027.013c.175.108.356.216.536.32.324.194.657.378.99.554l.212.108c.486.252.981.491 1.49.711.1.045.216.09.32.135l.022.009c.239.1.477.194.72.284a23.655 23.655 0 0 0 2.439.783 25.085 25.085 0 0 0 6.468.846c.8 0 1.584-.036 2.363-.113a24.983 24.983 0 0 0 5.239-1.058h.013a24.586 24.586 0 0 0 3.146-1.247s.013 0 .018-.009c.229-.108.45-.225.675-.338l.108-.054a23.88 23.88 0 0 0 1.868-1.076 14.39 14.39 0 0 0 .869-.581c.22-.153.441-.311.657-.473.067-.05.14-.1.207-.153a25.064 25.064 0 0 0 8.515-28.211zm-9.343 27.114c-.149.117-.3.23-.455.333s-.3.221-.45.32a6.084 6.084 0 0 1-.4.27l-.04.027c-.1.068-.2.13-.3.194q-.56.351-1.134.675l-.122.068c-.171.095-.342.185-.513.275-.023.013-.05.023-.072.036l-.027.014a16.66 16.66 0 0 1-.657.324 22.079 22.079 0 0 1-2.624 1.062c-.117.04-.234.081-.351.117a23.608 23.608 0 0 1-4.96 1.008c-.738.068-1.485.1-2.237.1a23.381 23.381 0 0 1-6.116-.8 22.223 22.223 0 0 1-3-1.017c-.05-.023-.1-.04-.153-.063s-.1-.041-.153-.063-.1-.045-.158-.072a20.506 20.506 0 0 1-1.251-.6l-.2-.1a22.294 22.294 0 0 1-1.886-1.107l-.1-.068c-.32-.212-.639-.432-.95-.662-.211-.158-.423-.315-.63-.477-.347-.261-.68-.54-1-.828-.171-.144-.338-.3-.5-.45a22.874 22.874 0 0 1-1.809-1.872 14.8 14.8 0 0 1-.549-.657 1.711 1.711 0 0 1-.113-.14 23.7 23.7 0 1 1 32.909 4.154z" transform="translate(-327.444 -144.779)"/>
        <path id="Path_17447" data-name="Path 17447" class="cls-3" d="M406.108 346.687a25.073 25.073 0 1 0-43.329 23.813c.225.284.459.567.7.842.018.018.031.036.049.054a24.358 24.358 0 0 0 1.868 1.926c.171.158.351.32.531.473.342.306.693.6 1.058.878a24.658 24.658 0 0 0 2.223 1.562l.027.014c.5.311 1.008.6 1.526.873l.211.108c.486.252.981.491 1.49.711.1.045.216.09.32.135l.023.009a24.359 24.359 0 0 0 3.16 1.067 25.084 25.084 0 0 0 6.467.846c.8 0 1.584-.036 2.363-.113a24.983 24.983 0 0 0 5.239-1.058h.013a24.575 24.575 0 0 0 3.146-1.247s.014 0 .018-.009c.229-.108.45-.225.675-.338l.108-.054c.18-.095.36-.189.54-.288.45-.247.891-.509 1.328-.788a21.591 21.591 0 0 0 1.526-1.054c.068-.049.14-.1.207-.153a25.066 25.066 0 0 0 8.515-28.211z" transform="translate(-327.445 -210.973)"/>
        <circle id="Ellipse_188" data-name="Ellipse 188" class="cls-6" cx="3.758" cy="3.758" r="3.758" transform="translate(59.501 146.774)"/>
        <path id="Path_969" data-name="Path 969" class="cls-6" d="M415.742 378.772a3.758 3.758 0 0 1 3.308 5.541 3.757 3.757 0 1 0-6.242-4.128 3.749 3.749 0 0 1 2.934-1.413z" transform="translate(-351.436 -231.894)"/>
        <circle id="Ellipse_189" data-name="Ellipse 189" class="cls-6" cx="11.039" cy="11.039" r="11.039" transform="translate(45.198 128.447)"/>
        <path id="Path_970" data-name="Path 970" d="M385.91 350.873a11.037 11.037 0 0 1 15.3-1.158c-.09-.086-.18-.172-.273-.256A11.039 11.039 0 1 0 386.2 365.9l.063.056c.094.083.19.162.286.242a11.037 11.037 0 0 1-.642-15.328z" transform="translate(-338.337 -218.236)" style="fill:#fff"/>
        <circle id="Ellipse_190" data-name="Ellipse 190" class="cls-3" cx="7.109" cy="7.109" r="7.109" transform="translate(49.034 136.212)"/>
        <path id="Path_17448" data-name="Path 17448" class="cls-8" d="M401.359 397.269v2.385a23.88 23.88 0 0 1-1.868 1.076l-.108.054c-.225.113-.446.23-.675.338 0 0-.014 0-.018.009a24.575 24.575 0 0 1-3.146 1.247h-.013a24.981 24.981 0 0 1-5.239 1.058c-.779.077-1.566.113-2.363.113a25.084 25.084 0 0 1-6.467-.846 24.354 24.354 0 0 1-3.16-1.067l-.023-.009c-.1-.045-.216-.09-.32-.135-.509-.221-1-.459-1.49-.711l-.211-.108a26.21 26.21 0 0 1-1.526-.873l-.027-.013a24.652 24.652 0 0 1-2.223-1.562 17.773 17.773 0 0 1-1.058-.878c-.18-.153-.36-.315-.531-.473a24.368 24.368 0 0 1-1.868-1.926 9.108 9.108 0 0 1 .342-1.382 2.018 2.018 0 0 1 .094-.225 1.8 1.8 0 0 1 .085-.189c.806-1.508 2.264-1.881 4.073-1.962 1.022-.045 2.151 0 3.344-.009.63 0 1.283-.027 1.935-.086 4.118-.374 3.371-2.8 3.556-4.114.185-1.269 1.328-.171 1.4-.1a14.524 14.524 0 0 0 7.471 1.31c.441-.054.882-.086 1.323-.1 1.161-.014.909.32.509.594a5.022 5.022 0 0 1-.608.342s-.185 1.125-.374 2.808c-.18 1.611 2.907 2.367 3.164 2.426a.027.027 0 0 0 .018 0 6.2 6.2 0 0 1 3.425.09 4.059 4.059 0 0 1 2.577 2.918z" transform="translate(-332.494 -235.425)"/>
        <path id="Path_17449" data-name="Path 17449" class="cls-3" d="M381.744 403.242c0 .333-.009.653-.022.954 0 .18-.013.356-.022.522l-.023-.009c-.1-.045-.216-.09-.32-.135-.509-.221-1-.459-1.49-.711l-.211-.108a26.21 26.21 0 0 1-1.526-.873c.013-.158.036-.315.058-.473.049-.347.09-.7.117-1.044a14.485 14.485 0 0 0-1.283-7.093c-.09-.18-.144-.279-.144-.279a2.712 2.712 0 0 1 3.177 0 1.123 1.123 0 0 1 .311.27c1.126 1.323 1.434 5.788 1.378 8.979z" transform="translate(-335.892 -238.504)"/>
        <path id="Path_17450" data-name="Path 17450" class="cls-3" d="M418.772 405.149c-.018.5-.045 1.031-.076 1.566s-.014 0-.018.009a24.575 24.575 0 0 1-3.146 1.247h-.013l-.049-1.265v-.167l-.238-6.157a1.033 1.033 0 0 1 1.031-1.08h2.282c.113 0 .194.23.248.644a39 39 0 0 1-.014 5.189z" transform="translate(-352.482 -241.023)"/>
        <path id="Path_975" data-name="Path 975" class="cls-6" d="M392.874 357.267v7.111h1.646l2.1-2.245-.28 2.245h7.278l-.45-2.245.9 2.245h1.16v-7.111z" transform="translate(-342.812 -222.833)"/>
        <ellipse id="Ellipse_191" data-name="Ellipse 191" class="cls-3" cx=".561" cy="1.029" rx=".561" ry="1.029" transform="translate(48.379 140.796)"/>
        <ellipse id="Ellipse_192" data-name="Ellipse 192" class="cls-3" cx=".561" cy="1.029" rx=".561" ry="1.029" transform="translate(62.785 140.796)"/>
        <path id="Path_17451" data-name="Path 17451" class="cls-3" d="M426.116 405.768a23.3 23.3 0 0 1-1.166.824 8.022 8.022 0 0 1-.36.23 23.88 23.88 0 0 1-1.868 1.076v-4.96s.72.576 1.868 1.535c.144.122.293.248.45.383.334.278.694.584 1.076.912z" transform="translate(-355.726 -242.592)"/>
        <path id="Path_17452" data-name="Path 17452" class="cls-3" d="M406.108 346.687a25.073 25.073 0 1 0-43.329 23.813c.225.284.459.567.7.842.018.018.031.036.049.054a24.358 24.358 0 0 0 1.868 1.926c.171.158.351.32.531.473.342.306.693.6 1.058.878a24.658 24.658 0 0 0 2.223 1.562l.027.014c.5.311 1.008.6 1.526.873l.211.108c.486.252.981.491 1.49.711.1.045.216.09.32.135l.023.009a24.359 24.359 0 0 0 3.16 1.067 25.084 25.084 0 0 0 6.467.846c.8 0 1.584-.036 2.363-.113a24.983 24.983 0 0 0 5.239-1.058h.013a24.575 24.575 0 0 0 3.146-1.247s.014 0 .018-.009c.229-.108.45-.225.675-.338l.108-.054c.18-.095.36-.189.54-.288.45-.247.891-.509 1.328-.788a21.591 21.591 0 0 0 1.526-1.054c.068-.049.14-.1.207-.153a25.066 25.066 0 0 0 8.515-28.211zm-9.344 27.113c-.149.117-.3.23-.454.333s-.3.221-.45.32a6.084 6.084 0 0 1-.4.27 12.99 12.99 0 0 1-.338.221q-.56.351-1.134.675l-.122.068c-.171.095-.342.185-.513.275-.023.013-.05.023-.072.036l-.027.013c-.216.113-.436.221-.657.324a22.061 22.061 0 0 1-2.624 1.062c-.117.04-.234.081-.351.117a23.612 23.612 0 0 1-4.96 1.008c-.738.068-1.485.1-2.237.1a23.381 23.381 0 0 1-6.116-.8 22.231 22.231 0 0 1-3-1.017l-.306-.126c-.054-.022-.1-.045-.158-.072a20.793 20.793 0 0 1-1.251-.6l-.2-.1c-.5-.261-.99-.54-1.467-.837a13.252 13.252 0 0 1-.522-.338 24.192 24.192 0 0 1-1.58-1.139c-.347-.261-.68-.54-1-.828-.171-.144-.338-.3-.5-.45a22.888 22.888 0 0 1-1.809-1.872 14.8 14.8 0 0 1-.549-.657 1.726 1.726 0 0 1-.113-.14 23.7 23.7 0 1 1 32.909 4.154z" transform="translate(-327.445 -210.973)"/>
        <circle id="Ellipse_788" data-name="Ellipse 788" class="cls-6" cx="9.824" cy="9.824" r="9.824" transform="translate(45.303 222.383)"/>
        <ellipse id="Ellipse_789" data-name="Ellipse 789" class="cls-6" cx="4.065" cy="3.049" rx="4.065" ry="3.049" transform="rotate(-45 292.307 64.121)"/>
        <ellipse id="Ellipse_790" data-name="Ellipse 790" class="cls-6" cx="3.049" cy="4.065" rx="3.049" ry="4.065" transform="rotate(-66.869 197.527 68.77)"/>
        <path id="Path_17453" data-name="Path 17453" class="cls-3" d="m415 559.731-1.157-1.821a4.543 4.543 0 1 0-8.306 3.682l.329 1.18.375 1.339a25.647 25.647 0 0 0 4.471-.976.019.019 0 0 0 .011-.006 23.9 23.9 0 0 0 3.149-1.248c.006-.006.011-.006.017-.011.227-.108.448-.221.675-.335a.983.983 0 0 0 .108-.057 16.198 16.198 0 0 0 1.066-.59z" transform="translate(-348.119 -308.47)"/>
        <circle id="Ellipse_791" data-name="Ellipse 791" cx="8.337" cy="8.337" r="8.337" transform="translate(47.101 226.214)" style="stroke:#222;fill:#fff"/>
        <path id="Path_17454" data-name="Path 17454" class="cls-5" d="M405.738 558.458a18.033 18.033 0 0 0-3.387-4.108 4.952 4.952 0 0 0-3.3-1.259H387.3a4.95 4.95 0 0 0-4.942 5.265 5.07 5.07 0 0 0 .2 1.123 5.332 5.332 0 0 0 .312.772l.579 1.157c.045.017.091.04.136.057.011.006.017.006.023.011.238.1.477.193.721.284a23.466 23.466 0 0 0 2.44.783 24.585 24.585 0 0 0 4.062.732 25.282 25.282 0 0 0 4.772 0c.255-.023.511-.051.766-.079a25.652 25.652 0 0 0 4.471-.976.02.02 0 0 0 .011-.006 23.914 23.914 0 0 0 3.149-1.248c.005-.006.011-.006.017-.011.227-.108.448-.221.675-.335a.974.974 0 0 0 .108-.057 16.198 16.198 0 0 0 1.066-.59c.17-.106.352-.2.528-.312a16.375 16.375 0 0 0-.656-1.203z" transform="translate(-338.26 -307.555)"/>
        <path id="Path_17455" data-name="Path 17455" class="cls-3" d="M388.479 555.444a4.539 4.539 0 0 0-6.025 2.167l-1.044 1.577-.5.755-.76 1.146.471.255.21.108c.488.25.982.488 1.492.709.057.028.119.051.181.079.045.017.091.04.136.057.011.006.017.006.023.011.238.1.477.193.721.284a23.468 23.468 0 0 0 2.44.783 24.585 24.585 0 0 0 4.062.732l.4-1.345.386-1.282a4.546 4.546 0 0 0-2.193-6.036z" transform="translate(-337.307 -308.387)"/>
        <path id="Path_17456" data-name="Path 17456" class="cls-6" d="M386.908 521.081a11.339 11.339 0 0 0 6.48 2 6.949 6.949 0 0 1-2.754 1.133 22.863 22.863 0 0 0 9.34.052 6.044 6.044 0 0 0 1.955-.671 2.474 2.474 0 0 0 1.207-1.614c.2-1.171-.707-2.234-1.655-2.951a12.209 12.209 0 0 0-10.26-2.05 5.618 5.618 0 0 0-3.039 1.717 2.768 2.768 0 0 0-.256 3.287z" transform="translate(-340.231 -291.774)"/>
        <path id="Path_17457" data-name="Path 17457" class="cls-3" d="M406.112 499.684a25.074 25.074 0 1 0-43.329 23.816c.221.284.46.567.7.84a.456.456 0 0 0 .045.057 23.913 23.913 0 0 0 1.872 1.923c.17.159.346.323.528.477.34.306.692.6 1.061.874.142.113.284.227.431.335.573.437 1.174.84 1.787 1.231a.043.043 0 0 1 .028.011c.176.108.358.216.539.318s.346.2.516.3.312.17.471.255l.21.108c.488.25.982.488 1.492.709.057.028.119.051.181.079.045.017.091.04.136.057.011.006.017.006.023.011.238.1.477.193.721.284a23.469 23.469 0 0 0 2.44.783 24.584 24.584 0 0 0 4.062.732 25.282 25.282 0 0 0 4.772 0c.255-.023.511-.051.766-.079a25.652 25.652 0 0 0 4.471-.976.019.019 0 0 0 .011-.006 23.92 23.92 0 0 0 3.149-1.248c.006-.006.011-.006.017-.011.227-.108.448-.221.675-.335a.98.98 0 0 0 .108-.057 16.198 16.198 0 0 0 1.066-.59c.17-.106.352-.2.528-.312l.272-.17a6.7 6.7 0 0 0 .363-.233c.17-.108.34-.227.5-.346.221-.153.443-.312.658-.477a2.48 2.48 0 0 0 .21-.153 25.089 25.089 0 0 0 8.52-28.207zm-9.344 27.116c-.148.119-.3.233-.454.335s-.3.221-.454.323c-.13.091-.261.182-.4.267a.249.249 0 0 1-.04.028c-.1.068-.2.131-.3.193-.068.04-.136.085-.2.125-.2.125-.4.244-.6.357-.108.068-.221.13-.329.193l-.119.068c-.176.1-.346.182-.516.272-.022.017-.051.023-.068.04a.044.044 0 0 0-.029.011c-.216.113-.437.221-.658.323a21.9 21.9 0 0 1-2.627 1.061c-.113.04-.232.085-.346.119a23.745 23.745 0 0 1-4.442.953c-.17.023-.346.04-.522.057a24.3 24.3 0 0 1-4.243.015 23.394 23.394 0 0 1-4.108-.715 21.736 21.736 0 0 1-3-1.021c-.051-.023-.1-.04-.153-.062l-.153-.062a2.685 2.685 0 0 1-.159-.074 19.867 19.867 0 0 1-1.095-.516c-.051-.028-.1-.051-.153-.079l-.2-.1a22.575 22.575 0 0 1-.352-.187c-.38-.2-.755-.425-1.118-.652-.136-.085-.284-.176-.42-.267l-.1-.068c-.318-.216-.635-.431-.947-.664-.21-.159-.426-.312-.63-.477a14.493 14.493 0 0 1-1-.828c-.17-.142-.34-.3-.5-.448a22.512 22.512 0 0 1-1.81-1.872c-.187-.216-.375-.431-.55-.658-.04-.045-.074-.091-.114-.142a23.7 23.7 0 1 1 32.913 4.153z" transform="translate(-327.446 -277.166)"/>
        <path id="Path_17458" data-name="Path 17458" d="M401.57 286.015a58.927 58.927 0 1 0 3.341 87.026l72.282 60.991a5.43 5.43 0 0 0 7.012-8.294l-.008-.007-72.281-60.991a58.931 58.931 0 0 0-10.345-78.726zm-4.66 72.853a44.149 44.149 0 1 1-5.271-62.213 44.149 44.149 0 0 1 5.271 62.213z" transform="translate(-304.638 -185.996)" style="stroke:#222;stroke-width:2px;fill:#ddd"/>
        <path id="Path_17459" data-name="Path 17459" d="M342.1 389.048a44.151 44.151 0 0 1-7.492-59.35q-1.266 1.275-2.448 2.671a44.149 44.149 0 0 0 67.484 56.942q1.179-1.4 2.221-2.863a44.151 44.151 0 0 1-59.765 2.6z" transform="translate(-312.042 -210.905)" style="opacity:.3;isolation:isolate;stroke:#222;fill:#fff;stroke-width:2px"/>
        <path id="Path_17460" data-name="Path 17460" class="cls-3" d="M713.619 513.391a6.095 6.095 0 0 0-1.741-9.182L698.7 450.282l-9.611 3.068 14.227 53.559a6.128 6.128 0 0 0 10.3 6.482z" transform="translate(-470.968 -263.075)"/>
        <path id="Path_17461" data-name="Path 17461" class="cls-3" d="m398.9 358.162-7.024 6.059-9.827 8.471-4.34-22.206-.454-2.309-.357-1.833L386.859 329l8.3.476.567.034.011.125.13 1.163 1.7 15.307.04.369z" transform="translate(-163.063 -142.339)"/>
        <path id="Path_17462" data-name="Path 17462" class="cls-3" d="M326.936 625.615h-6.956l-3.309-26.829h10.266z" transform="translate(-137.004 -259.06)"/>
        <path id="Path_17463" data-name="Path 17463" class="cls-12" d="M625.425 771.4H603v-.284a8.73 8.73 0 0 1 8.729-8.729h13.7z" transform="translate(-433.72 -398.106)"/>
        <path id="Path_17464" data-name="Path 17464" class="cls-3" d="M454.936 626.615h-6.956l-3.309-26.829h10.266z" transform="translate(-192.383 -259.492)"/>
        <path id="Path_17465" data-name="Path 17465" class="cls-12" d="M753.425 772.4H731v-.284a8.73 8.73 0 0 1 8.729-8.729h13.7z" transform="translate(-489.098 -398.538)"/>
        <path id="Path_17466" data-name="Path 17466" class="cls-8" d="m704.083 617.694-18.723 2.837-27.239-92.184-28.929 92.753-20.992-2.838 27.233-107.8v-8.51l3.688-12.766-.386-3.455-2.684-24.164-1.163-10.479-.075-.677a2.3 2.3 0 0 1 1.812-2.506l8.737-1.838h14.28l8.425 2.32.579.159.261.074-.13 1.089-1.977 16.557-.108.908-1.906 15.96-.42 3.5c16.453 11.914 17.021 23.829 17.021 23.829z" transform="translate(-435.971 -261.252)"/>
        <circle id="Ellipse_792" data-name="Ellipse 792" class="cls-3" cx="13.935" cy="13.935" r="13.935" transform="translate(200.871 149.769)"/>
        <path id="Rectangle_4162" data-name="Rectangle 4162" class="cls-3" transform="rotate(-7.451 1834.704 -1437.28)" d="M0 0h27.801v3.972H0z"/>
        <path id="Path_17467" data-name="Path 17467" class="cls-3" d="M588.3 510.491a5.964 5.964 0 0 1 .747.571l27.265-6.95 1.86-6.578 10.294 1.51-2.166 11.964a4.539 4.539 0 0 1-3.991 3.707l-31.835 3.353a5.956 5.956 0 1 1-2.178-7.577z" transform="translate(-423.399 -283.518)"/>
        <path id="Path_17468" data-name="Path 17468" class="cls-3" d="m657.735 452.679-4.823-3.688c-1.3-.495-3.091.911-3.4 2.269l-6.808 27.8 14.184 10.212 1.986-3.12z" transform="translate(-450.897 -262.473)"/>
        <g id="Group_19522" data-name="Group 19522" transform="translate(203.379 184.816)" style="opacity:.2">
            <path id="Path_17469" data-name="Path 17469" class="cls-3" d="M694.232 465.018a38.409 38.409 0 0 1-3.677 1.248c-.4.119-.806.233-1.208.34a37.457 37.457 0 0 1-8.136 1.316 25.614 25.614 0 0 1-3.551-.1 19.994 19.994 0 0 1-3.739-.738l-.125-.034a16.4 16.4 0 0 1-6.78-3.852 13.355 13.355 0 0 1-1.2-1.333 12.05 12.05 0 0 1-2.587-9.378 8.026 8.026 0 0 1 .193-.891 14.253 14.253 0 0 1 .845-2.326c.153-.352.324-.7.505-1.038l6.411-2.167H683.4l8.425 2.32.567.034.011.125.261.074-.13 1.089z" transform="translate(-663.103 -446.069)"/>
        </g>
        <path id="Path_17470" data-name="Path 17470" class="cls-6" d="M657.248 383.308c-2.606-.319-5.466-.094-7.5 1.57s-2.687 5.122-.764 6.909c1.7 1.582 4.365 1.21 6.645 1.66a8.995 8.995 0 0 1 7.026 8.6c-.034 5.772-5.574 10.144-6.569 15.83a12.347 12.347 0 0 0 3.787 10.706 17.866 17.866 0 0 0 10.638 4.624 32.88 32.88 0 0 0 11.691-1.219 32.511 32.511 0 0 0 10.8-4.759 17.548 17.548 0 0 0 6.87-9.394 12.1 12.1 0 0 0-2.365-11.132c-3.04-3.358-8.1-4.513-10.729-8.2-2.948-4.135-1.857-10.023-4.243-14.506a13.56 13.56 0 0 0-7.825-6.11 34.909 34.909 0 0 0-10.038-1.392 13.3 13.3 0 0 0-5.277.576 4.766 4.766 0 0 0-3.2 3.909 2.327 2.327 0 0 0 1.053 2.328z" transform="translate(-453.121 -231.141)"/>
        <path id="Path_17471" data-name="Path 17471" class="cls-3" d="M729.093 778.816H512.929a.567.567 0 0 1 0-1.135h216.164a.567.567 0 0 1 0 1.135z" transform="translate(-394.507 -404.722)"/>
    </g>
</svg>
